<svg width="200" height="200" viewBox="0 0 200 200" fill="none" xmlns="http://www.w3.org/2000/svg">
<g clip-path="url(#clip0_52_647)">
<path d="M100 200C155.228 200 200 155.228 200 100C200 44.7715 155.228 0 100 0C44.7715 0 0 44.7715 0 100C0 155.228 44.7715 200 100 200Z" fill="url(#paint0_radial_52_647)"/>
<path d="M84.05 49.47C87.26 49.58 94.12 63.07 94.12 63.07C94.12 63.07 90.12 48.61 82.91 40.66C83.6273 43.5431 84.0098 46.4993 84.05 49.47Z" fill="#FFF613"/>
<path fill-rule="evenodd" clip-rule="evenodd" d="M76.25 29.28C73.81 25.82 77.01 28.57 77.01 28.57C89.85 39.04 96.75 52.73 100.01 65.69C102.107 73.8482 102.95 82.2781 102.51 90.69C105.24 89.82 117.88 85.89 124.92 85.89C132.84 85.89 134.44 86.1 139.92 88.05C145.4 90 146.12 91.92 146.29 92.98C147.24 99.11 118.29 116.46 102.62 111.51C102.894 119.479 102.028 127.446 100.05 135.17C96.74 148.17 89.84 161.82 77.05 172.29C77.05 172.29 76.61 172.66 76.29 172.29C76.2042 172.192 76.1569 172.066 76.1569 171.935C76.1569 171.804 76.2042 171.678 76.29 171.58C82.59 162.58 83.42 154.33 82.76 146.7C82.5 143.62 82 140.7 81.51 137.79C81.39 137.08 81.27 136.39 81.16 135.69C80.5058 132.372 80.224 128.991 80.32 125.61C80.71 119.13 83.7 115.95 86.81 112.7C89.7 109.7 94.26 104.32 94.16 100.43C94.06 96.54 89.7 91.17 86.81 88.15C83.7 84.91 80.71 81.72 80.32 75.24C80.224 71.8592 80.5058 68.4783 81.16 65.16C81.27 64.46 81.39 63.77 81.51 63.06C82 60.19 82.51 57.23 82.76 54.15C82.88 52.85 82.94 51.53 82.95 50.15C82.991 46.483 82.4579 42.8322 81.37 39.33C80.187 35.738 78.4603 32.3487 76.25 29.28ZM94.12 63.07C94.12 63.07 87.26 49.58 84.05 49.47C84.0098 46.4993 83.6273 43.5431 82.91 40.66C90.12 48.61 94.12 63.07 94.12 63.07ZM131.82 92.32C131.822 92.9617 131.633 93.5895 131.278 94.1238C130.923 94.6582 130.417 95.075 129.825 95.3214C129.232 95.5679 128.58 95.6329 127.95 95.5082C127.321 95.3835 126.743 95.0747 126.289 94.621C125.835 94.1673 125.527 93.5891 125.402 92.9596C125.277 92.3302 125.342 91.6779 125.589 91.0855C125.835 90.493 126.252 89.9871 126.786 89.6319C127.321 89.2766 127.948 89.088 128.59 89.09C129.447 89.09 130.268 89.4303 130.874 90.0361C131.48 90.6418 131.82 91.4634 131.82 92.32Z" fill="#1E1E1E"/>
</g>
<defs>
<radialGradient id="paint0_radial_52_647" cx="0" cy="0" r="1" gradientUnits="userSpaceOnUse" gradientTransform="translate(100 100) scale(100.21)">
<stop stop-color="white" stop-opacity="0.4"/>
<stop offset="0.22" stop-color="#F3F2F1" stop-opacity="0.43"/>
<stop offset="0.47" stop-color="#CECCC7" stop-opacity="0.53"/>
<stop offset="0.73" stop-color="#928E81" stop-opacity="0.68"/>
<stop offset="1" stop-color="#3E3721" stop-opacity="0.9"/>
</radialGradient>
<clipPath id="clip0_52_647">
<rect width="200" height="200" fill="white"/>
</clipPath>
</defs>
</svg>
