<svg width="201" height="201" viewBox="0 0 201 201" fill="none" xmlns="http://www.w3.org/2000/svg">
<path d="M100.143 200.502C155.372 200.502 200.143 155.73 200.143 100.502C200.143 45.2731 155.372 0.501587 100.143 0.501587C44.9148 0.501587 0.143311 45.2731 0.143311 100.502C0.143311 155.73 44.9148 200.502 100.143 200.502Z" fill="url(#paint0_radial_54_655)"/>
<path d="M84.1932 49.9716C87.4032 50.0816 94.2632 63.5716 94.2632 63.5716C94.2632 63.5716 90.2632 49.1116 83.0532 41.1616C83.7705 44.0447 84.153 47.0009 84.1932 49.9716Z" fill="#FFF613"/>
<path fill-rule="evenodd" clip-rule="evenodd" d="M76.3934 29.7816C73.9534 26.3216 77.1534 29.0716 77.1534 29.0716C89.9934 39.5416 96.8934 53.2316 100.153 66.1916C102.25 74.3498 103.093 82.7797 102.653 91.1916C105.383 90.3216 118.023 86.3916 125.063 86.3916C132.983 86.3916 134.583 86.6016 140.063 88.5516C145.543 90.5016 146.263 92.4216 146.433 93.4816C147.383 99.6116 118.433 116.962 102.763 112.012C103.037 119.98 102.172 127.947 100.193 135.672C96.8834 148.672 89.9834 162.322 77.1934 172.792C77.1934 172.792 76.7534 173.162 76.4334 172.792C76.3475 172.693 76.3003 172.567 76.3003 172.437C76.3003 172.306 76.3475 172.18 76.4334 172.082C82.7334 163.082 83.5634 154.832 82.9034 147.202C82.6434 144.122 82.1434 141.202 81.6534 138.292C81.5334 137.582 81.4134 136.892 81.3034 136.192C80.6491 132.873 80.3673 129.492 80.4634 126.112C80.8534 119.632 83.8434 116.452 86.9534 113.202C89.8434 110.202 94.4034 104.822 94.3034 100.932C94.2034 97.0416 89.8434 91.6716 86.9534 88.6516C83.8434 85.4116 80.8534 82.2216 80.4634 75.7416C80.3673 72.3608 80.6491 68.9799 81.3034 65.6616C81.4134 64.9616 81.5334 64.2716 81.6534 63.5616C82.1434 60.6916 82.6534 57.7316 82.9034 54.6516C83.0234 53.3516 83.0833 52.0316 83.0933 50.6516C83.1343 46.9846 82.6012 43.3338 81.5134 39.8316C80.3303 36.2396 78.6036 32.8503 76.3934 29.7816ZM94.2634 63.5716C94.2634 63.5716 87.4034 50.0816 84.1934 49.9716C84.1531 47.0009 83.7706 44.0447 83.0534 41.1616C90.2634 49.1116 94.2634 63.5716 94.2634 63.5716ZM131.963 92.8216C131.965 93.4633 131.777 94.0911 131.421 94.6254C131.066 95.1597 130.56 95.5766 129.968 95.823C129.375 96.0695 128.723 96.1345 128.094 96.0098C127.464 95.8851 126.886 95.5763 126.432 95.1226C125.979 94.6689 125.67 94.0906 125.545 93.4612C125.42 92.8318 125.485 92.1795 125.732 91.5871C125.978 90.9946 126.395 90.4887 126.93 90.1335C127.464 89.7782 128.092 89.5896 128.733 89.5916C129.59 89.5916 130.412 89.9319 131.017 90.5376C131.623 91.1434 131.963 91.9649 131.963 92.8216Z" fill="#1E1E1E"/>
<defs>
<radialGradient id="paint0_radial_54_655" cx="0" cy="0" r="1" gradientUnits="userSpaceOnUse" gradientTransform="translate(97.7234 105.108) rotate(-1.88134) scale(100.214)">
<stop stop-color="white" stop-opacity="0"/>
<stop offset="0.35" stop-color="#FEFFFF" stop-opacity="0.01"/>
<stop offset="0.49" stop-color="#FDFEFF" stop-opacity="0.04"/>
<stop offset="0.59" stop-color="#FAFDFF" stop-opacity="0.08"/>
<stop offset="0.68" stop-color="#F5FBFF" stop-opacity="0.15"/>
<stop offset="0.75" stop-color="#EFF9FF" stop-opacity="0.24"/>
<stop offset="0.81" stop-color="#E8F7FF" stop-opacity="0.35"/>
<stop offset="0.87" stop-color="#E0F4FF" stop-opacity="0.48"/>
<stop offset="0.92" stop-color="#D6F0FF" stop-opacity="0.63"/>
<stop offset="0.97" stop-color="#CBECFF" stop-opacity="0.8"/>
<stop offset="1" stop-color="#C4EAFF" stop-opacity="0.9"/>
</radialGradient>
</defs>
</svg>
